<svg xmlns="http://www.w3.org/2000/svg" viewBox="0 0 305.5 397.25"><defs><style>.cls-1{fill:none;stroke:#2c4157;stroke-miterlimit:10;stroke-width:0.5px;}.cls-2{fill:#869ab4;}</style></defs><g id="圖層_2" data-name="圖層 2"><g id="content"><polyline class="cls-1" points="101.43 65.84 0.25 65.84 0.25 397 100.55 397"/><polyline class="cls-1" points="197.65 65.84 305.25 65.84 305.25 397 203.86 397"/><path class="cls-2" d="M144.77,35.79l6.51.05a19.31,19.31,0,0,0,12.09-3.77A14.34,14.34,0,0,0,169,21.83q.7-6.3-2.34-9.91c-2-2.41-5-3.64-8.85-3.72a15.13,15.13,0,0,0-10.51,3.61,15.93,15.93,0,0,0-5.29,10l-9.72.06A22.53,22.53,0,0,1,140.61,6a26.49,26.49,0,0,1,17.68-6q9.93.22,15.61,6.22t4.92,15.83a18.35,18.35,0,0,1-4.29,10.21A28.52,28.52,0,0,1,164,39.91a15.69,15.69,0,0,1,8,6.87,19.22,19.22,0,0,1,2.22,11A24.27,24.27,0,0,1,165.76,75a26.68,26.68,0,0,1-18.55,6.3Q137.06,81.08,131,75T125.44,59.3l9.82.05c-.21,4.06.76,7.33,2.94,9.81s5.32,3.79,9.45,3.93a15.76,15.76,0,0,0,11.56-4,16.57,16.57,0,0,0,5.27-11.19q.6-6.45-2.93-10.07T151,44l-7.55,0Z"/></g></g></svg>