<svg xmlns="http://www.w3.org/2000/svg" viewBox="0 0 155.74 58.24"><defs><style>.cls-1{fill:#2c4157;}</style></defs><g id="圖層_2" data-name="圖層 2"><g id="content"><path class="cls-1" d="M16.24,56.32h1.68v.8H.56l.08-.8H2.32A4.31,4.31,0,0,0,5.4,55a4.09,4.09,0,0,0,1.32-3V9.84Q6.72,5.93,3,5.92H0v-.8A25.7,25.7,0,0,0,6.32,3.6,12.2,12.2,0,0,0,11,0h.8V52a4.13,4.13,0,0,0,1.28,3.08A4.29,4.29,0,0,0,16.24,56.32Z"/><path class="cls-1" d="M32.8,7.8Q37.84,0,46.56,0T60.32,7.8q5,7.8,5,21.32t-5,21.32q-5,7.8-13.76,7.8T32.8,50.44q-5-7.8-5-21.32T32.8,7.8ZM56.24,9.56Q52.72,2.4,46.56,2.4T36.88,9.56q-3.52,7.15-3.52,19.56t3.52,19.56q3.52,7.16,9.68,7.16t9.68-7.16q3.52-7.16,3.52-19.56T56.24,9.56Z"/><path class="cls-1" d="M79.68,7.8Q84.72,0,93.44,0T107.2,7.8q5,7.8,5,21.32t-5,21.32q-5,7.8-13.76,7.8t-13.76-7.8q-5-7.8-5-21.32T79.68,7.8Zm23.44,1.76Q99.6,2.4,93.44,2.4T83.76,9.56q-3.53,7.15-3.52,19.56t3.52,19.56q3.52,7.16,9.68,7.16t9.68-7.16q3.52-7.16,3.52-19.56T103.12,9.56Z"/><path class="cls-1" d="M135.94,17.52a8.27,8.27,0,0,1,1,3.84q0,7.2-4,11.28a8.72,8.72,0,0,1-6.42,2.82,5.89,5.89,0,0,1-5.4-2.82,7.57,7.57,0,0,1-1.2-4.08q0-7.32,3.9-11.34a9.08,9.08,0,0,1,6.48-2.94,8.37,8.37,0,0,1,2.19.3,16.36,16.36,0,0,1,3.45,1.68,9.62,9.62,0,0,0,4.23,1.44,9.25,9.25,0,0,0,2.94-.45,18.76,18.76,0,0,0,3.24-1.53q1.89-1.08,2.07-1.14l1.32.54L127.36,57.78l-1.5-.66,21.36-40.56-.87.45-.93.48-1,.48a6.92,6.92,0,0,1-1,.42l-1.08.3a3.14,3.14,0,0,1-1.2.15,6.79,6.79,0,0,0-1.29,0A10.41,10.41,0,0,1,135.94,17.52Zm-2.52,7.38a21.85,21.85,0,0,0,.36-3.78A9.46,9.46,0,0,0,133.3,18a3.29,3.29,0,0,0-3.24-2.52q-3.18,0-5.16,4.38A20.32,20.32,0,0,0,123,28.5a9.54,9.54,0,0,0,.48,3.24,3.29,3.29,0,0,0,3.24,2.52,5,5,0,0,0,4.11-2.52A17.17,17.17,0,0,0,133.42,24.9Zm15.72,11.88a5.86,5.86,0,0,1,5.4,2.88,7.47,7.47,0,0,1,1.2,4q0,7.38-3.9,11.4A8.82,8.82,0,0,1,145.36,58a5.86,5.86,0,0,1-5.4-2.88,7.47,7.47,0,0,1-1.2-4q0-7.38,3.9-11.4A8.82,8.82,0,0,1,149.14,36.78Zm3.12,10.62a22,22,0,0,0,.36-3.81,9,9,0,0,0-.48-3.09A3.29,3.29,0,0,0,148.9,38a5,5,0,0,0-4.11,2.52,17.24,17.24,0,0,0-2.55,6.9,21,21,0,0,0-.36,3.75,9,9,0,0,0,.48,3.09,3.29,3.29,0,0,0,3.24,2.52,5,5,0,0,0,4.11-2.52A17.17,17.17,0,0,0,152.26,47.4Z"/></g></g></svg>