<svg xmlns="http://www.w3.org/2000/svg" viewBox="0 0 95.44 93.95"><defs><style>.cls-1{fill:#2c4157;}</style></defs><g id="圖層_2" data-name="圖層 2"><g id="content"><path class="cls-1" d="M15.55,32.63a9.56,9.56,0,0,1,7.53-3.1,8.82,8.82,0,0,1,5.67,1.79A5.63,5.63,0,0,1,31,35.92a7.46,7.46,0,0,1-1.88,5A6.29,6.29,0,0,1,25,43.32a8.54,8.54,0,0,1,4.82,2.56,6.92,6.92,0,0,1,2,5A9.9,9.9,0,0,1,30.52,56a12.78,12.78,0,0,1-8.76,6,15.76,15.76,0,0,1-3.21.35,18.11,18.11,0,0,1-3.05-.26l.09-.44H16a14.73,14.73,0,0,0,6.06-1.27,11.37,11.37,0,0,0,4.67-3.74,9.67,9.67,0,0,0,1.79-5.8A6,6,0,0,0,26.1,45.7a10.72,10.72,0,0,0-6.52-1.82l.08-.43h.05a8.65,8.65,0,0,0,5.51-1.93A6,6,0,0,0,27,39.22a6.81,6.81,0,0,0,.63-2.87,5.67,5.67,0,0,0-1.4-4,5.18,5.18,0,0,0-4.05-1.55,5.27,5.27,0,0,0-4.07,1.55,5.53,5.53,0,0,0-1.42,3.88v.44h-.44Z"/><path class="cls-1" d="M47.86,44.63A5.71,5.71,0,0,0,43,46.91l-.27-.4A10.46,10.46,0,0,1,45.89,44,7.71,7.71,0,0,1,53,43.8a6.63,6.63,0,0,1,2.76,2.71A11.71,11.71,0,0,1,57,52.16a9.43,9.43,0,0,1-2.46,6.22,8.51,8.51,0,0,1-6.89,3,8.9,8.9,0,0,1-7.16-3.3c-1.84-2.21-2.76-5.17-2.76-8.91a27.68,27.68,0,0,1,1.62-9.33,19,19,0,0,1,4.86-7.48,13.84,13.84,0,0,1,8.23-3.77l.18.31a14.66,14.66,0,0,0-5.32,2.93,15.22,15.22,0,0,0-3.61,4.69A26.8,26.8,0,0,0,41,48.79,16.42,16.42,0,0,0,42.78,57,5.37,5.37,0,0,0,47.64,60a5.05,5.05,0,0,0,4.59-2.34,10.11,10.11,0,0,0,1.49-5.58c0-3.19-.9-5.37-2.71-6.57A5.39,5.39,0,0,0,47.86,44.63Z"/><path class="cls-1" d="M64.93,33.71a8.77,8.77,0,0,1,15.06,0Q82.75,38,82.75,45.37T80,57a8.77,8.77,0,0,1-15.06,0q-2.76-4.26-2.76-11.67T64.93,33.71Zm12.83,1c-1.29-2.61-3.05-3.92-5.3-3.92s-4,1.31-5.3,3.92-1.92,6.18-1.92,10.7.64,8.1,1.92,10.71,3,3.92,5.3,3.92,4-1.31,5.3-3.92,1.92-6.18,1.92-10.71S79,37.28,77.76,34.67Z"/><path class="cls-1" d="M88.09,32.87a4.36,4.36,0,0,1,6.09,0,4.32,4.32,0,1,1-6.09,0ZM93,34.08a2.63,2.63,0,0,0-3.68,0,2.61,2.61,0,0,0,0,3.68,2.66,2.66,0,0,0,3.68,0,2.58,2.58,0,0,0,0-3.68Z"/><path class="cls-1" d="M90.78,63.65a46.69,46.69,0,0,1-47,30.18,46.08,46.08,0,0,1-14.58-3.36,49.3,49.3,0,0,1-12.78-7.8A47.75,47.75,0,0,1,6.79,71.22a50.15,50.15,0,0,1-3.4-6.7L2.13,61c-.41-1.18-.63-2.42-1-3.63A18.84,18.84,0,0,1,.76,55.5L.5,53.64A27.57,27.57,0,0,1,.11,49.9c0-1.25-.14-2.51-.1-3.76l.23-3.76A50.23,50.23,0,0,1,4,27.89a48.42,48.42,0,0,1,8.2-12.53L13.5,14a15.06,15.06,0,0,1,1.33-1.32l2.83-2.48,3-2.2a12.44,12.44,0,0,1,1.58-1L23.9,6a48.13,48.13,0,0,1,14-5.21A51.07,51.07,0,0,1,52.82.32,46.57,46.57,0,0,1,79.3,13,46.34,46.34,0,0,0,52.76.81,50.89,50.89,0,0,0,38,1.44,47.27,47.27,0,0,0,24.29,6.7l-1.59,1a11.13,11.13,0,0,0-1.55,1l-3,2.18-2.76,2.45a13.29,13.29,0,0,0-1.3,1.3l-1.26,1.35a47.47,47.47,0,0,0-8,12.32A49.57,49.57,0,0,0,1.19,42.48L1,46.16c0,1.22.09,2.45.12,3.68a26.58,26.58,0,0,0,.39,3.66l.26,1.82c.07.61.28,1.2.4,1.8.32,1.18.53,2.4.93,3.56l1.22,3.48a50.55,50.55,0,0,0,3.32,6.57A47.13,47.13,0,0,0,17,82a48.47,48.47,0,0,0,12.51,7.68,46.68,46.68,0,0,0,14.3,3.4,46.16,46.16,0,0,0,28.23-7A46.74,46.74,0,0,0,90.78,63.65Z"/></g></g></svg>