<svg xmlns="http://www.w3.org/2000/svg" viewBox="0 0 120.46 58.24"><defs><style>.cls-1{fill:#2c4157;}</style></defs><g id="圖層_2" data-name="圖層 2"><g id="content"><path class="cls-1" d="M29.84,54q-4.72,4.2-12.6,4.2T4.68,54A13.63,13.63,0,0,1,0,43.44,14.39,14.39,0,0,1,3,34.2a23.49,23.49,0,0,1,8.56-6.36Q2.88,21.6,2.88,13.36A12.65,12.65,0,0,1,6.8,3.84,14.51,14.51,0,0,1,17.28,0q6.48,0,10.44,3.6t4,9.92A14.28,14.28,0,0,1,29.12,22a14.55,14.55,0,0,1-7.28,5.32q7.28,3.6,10,7.2a14.4,14.4,0,0,1,2.72,8.64A13.92,13.92,0,0,1,29.84,54ZM6,43.68a12.68,12.68,0,0,0,3,8.84q3,3.31,8.4,3.32t8.28-3.4a12.27,12.27,0,0,0,2.88-8.2A10.3,10.3,0,0,0,27.88,40a19.91,19.91,0,0,0-1.2-2.2,8.34,8.34,0,0,0-1.36-1.56c-.56-.51-1.05-.93-1.48-1.28a12,12,0,0,0-1.72-1.12l-1.72-1c-.43-.24-1-.55-1.84-.92-1.87-1-3.41-1.81-4.64-2.56Q6,34.72,6,43.68ZM8.88,12.32q0,7.84,8.24,12.56l1.76,1q6.8-5,6.8-13a12,12,0,0,0-2.24-7.64A7.42,7.42,0,0,0,17.28,2.4a7.33,7.33,0,0,0-6.16,2.92A11.19,11.19,0,0,0,8.88,12.32Z"/><path class="cls-1" d="M58,0q8,0,12.76,4.24t4.76,11.6a21.59,21.59,0,0,1-2.24,9.28,44.73,44.73,0,0,1-5,8.24q-2.47,3.12-4.08,5c-1.07,1.28-2.29,2.65-3.68,4.12S58,45.23,57,46.24s-2.13,2.17-3.44,3.48l-2.92,2.92H69a8.59,8.59,0,0,0,5.32-1.44,17.56,17.56,0,0,0,4-5.36h.8L75.36,57.12H42.56v-.8A157.86,157.86,0,0,0,59.44,37.76a66.7,66.7,0,0,0,7.24-11.48q2.83-5.8,2.84-10.12,0-6.48-3-10.12A10.16,10.16,0,0,0,58.24,2.4q-5.84,0-9.16,3.12t-3.16,8.72l-.8.08L43.68,5.2a18.76,18.76,0,0,1,9-4.56A22.8,22.8,0,0,1,58,0Z"/><path class="cls-1" d="M100.66,17.52a8.27,8.27,0,0,1,1,3.84q0,7.2-4,11.28a8.72,8.72,0,0,1-6.42,2.82,5.89,5.89,0,0,1-5.4-2.82,7.57,7.57,0,0,1-1.2-4.08q0-7.32,3.9-11.34A9.08,9.08,0,0,1,95,14.28a8.37,8.37,0,0,1,2.19.3,16.36,16.36,0,0,1,3.45,1.68,9.62,9.62,0,0,0,4.23,1.44,9.25,9.25,0,0,0,2.94-.45,18.76,18.76,0,0,0,3.24-1.53q1.89-1.08,2.07-1.14l1.32.54L92.08,57.78l-1.5-.66,21.36-40.56-.87.45-.93.48-1,.48a6.92,6.92,0,0,1-1,.42l-1.08.3a3.14,3.14,0,0,1-1.2.15,6.79,6.79,0,0,0-1.29,0A10.41,10.41,0,0,1,100.66,17.52ZM98.14,24.9a21.85,21.85,0,0,0,.36-3.78A9.46,9.46,0,0,0,98,18a3.29,3.29,0,0,0-3.24-2.52q-3.18,0-5.16,4.38a20.32,20.32,0,0,0-1.86,8.64,9.54,9.54,0,0,0,.48,3.24,3.29,3.29,0,0,0,3.24,2.52,5,5,0,0,0,4.11-2.52A17.17,17.17,0,0,0,98.14,24.9Zm15.72,11.88a5.86,5.86,0,0,1,5.4,2.88,7.47,7.47,0,0,1,1.2,4q0,7.38-3.9,11.4A8.82,8.82,0,0,1,110.08,58a5.86,5.86,0,0,1-5.4-2.88,7.47,7.47,0,0,1-1.2-4q0-7.38,3.9-11.4A8.82,8.82,0,0,1,113.86,36.78ZM117,47.4a22,22,0,0,0,.36-3.81,9,9,0,0,0-.48-3.09A3.29,3.29,0,0,0,113.62,38a5,5,0,0,0-4.11,2.52A17.24,17.24,0,0,0,107,47.4a21,21,0,0,0-.36,3.75,9,9,0,0,0,.48,3.09,3.29,3.29,0,0,0,3.24,2.52,5,5,0,0,0,4.11-2.52A17.17,17.17,0,0,0,117,47.4Z"/></g></g></svg>