<svg xmlns="http://www.w3.org/2000/svg" viewBox="0 0 122.14 60.08"><defs><style>.cls-1{fill:#2c4157;}</style></defs><g id="圖層_2" data-name="圖層 2"><g id="content"><path class="cls-1" d="M29.12,25q0-11.23-3.12-16.84t-8.88-5.6q-5.76,0-8.44,4.16A18.73,18.73,0,0,0,6,17.08Q6,23.28,8.84,27A9.69,9.69,0,0,0,17,30.72a10.26,10.26,0,0,0,8.56-4.16l.4.72a16.32,16.32,0,0,1-5.6,4.6,14.6,14.6,0,0,1-6.56,1.64Q5.75,33.52,2.08,27A18.73,18.73,0,0,1,0,17.84Q0,10.09,4.64,5.2q4.8-5,12.76-5a15.68,15.68,0,0,1,12.84,6q4.88,6,4.88,17a48.09,48.09,0,0,1-2.88,16.24,35.23,35.23,0,0,1-8.8,13.92,24.31,24.31,0,0,1-15.2,6.72L8,59.52a24.81,24.81,0,0,0,9.6-5.08,26.89,26.89,0,0,0,6.64-8.52A45.86,45.86,0,0,0,29.12,25Z"/><path class="cls-1" d="M74.16,54q-4.72,4.2-12.6,4.2T49,54a13.63,13.63,0,0,1-4.68-10.6,14.39,14.39,0,0,1,3-9.24,23.49,23.49,0,0,1,8.56-6.36Q47.2,21.6,47.2,13.36a12.65,12.65,0,0,1,3.92-9.52A14.51,14.51,0,0,1,61.6,0Q68.08,0,72,3.6t4,9.92A14.28,14.28,0,0,1,73.44,22a14.55,14.55,0,0,1-7.28,5.32q7.28,3.6,10,7.2a14.4,14.4,0,0,1,2.72,8.64A13.92,13.92,0,0,1,74.16,54ZM50.32,43.68a12.68,12.68,0,0,0,3,8.84q3,3.31,8.4,3.32T70,52.44a12.27,12.27,0,0,0,2.88-8.2A10.3,10.3,0,0,0,72.2,40a19.91,19.91,0,0,0-1.2-2.2,8.34,8.34,0,0,0-1.36-1.56c-.56-.51-1-.93-1.48-1.28a12,12,0,0,0-1.72-1.12l-1.72-1c-.43-.24-1-.55-1.84-.92-1.87-1-3.41-1.81-4.64-2.56Q50.32,34.72,50.32,43.68ZM53.2,12.32q0,7.84,8.24,12.56l1.76,1q6.8-5,6.8-13a12,12,0,0,0-2.24-7.64A7.42,7.42,0,0,0,61.6,2.4a7.33,7.33,0,0,0-6.16,2.92A11.19,11.19,0,0,0,53.2,12.32Z"/><path class="cls-1" d="M102.34,17.52a8.27,8.27,0,0,1,1,3.84q0,7.2-4,11.28a8.72,8.72,0,0,1-6.42,2.82,5.89,5.89,0,0,1-5.4-2.82,7.57,7.57,0,0,1-1.2-4.08q0-7.32,3.9-11.34a9.08,9.08,0,0,1,6.48-2.94,8.37,8.37,0,0,1,2.19.3,16.36,16.36,0,0,1,3.45,1.68,9.62,9.62,0,0,0,4.23,1.44,9.25,9.25,0,0,0,2.94-.45,18.76,18.76,0,0,0,3.24-1.53q1.89-1.08,2.07-1.14l1.32.54L93.76,57.78l-1.5-.66,21.36-40.56-.87.45-.93.48-1,.48a6.92,6.92,0,0,1-1,.42l-1.08.3a3.14,3.14,0,0,1-1.2.15,6.79,6.79,0,0,0-1.29,0A10.41,10.41,0,0,1,102.34,17.52ZM99.82,24.9a21.85,21.85,0,0,0,.36-3.78A9.46,9.46,0,0,0,99.7,18a3.29,3.29,0,0,0-3.24-2.52q-3.18,0-5.16,4.38a20.32,20.32,0,0,0-1.86,8.64,9.54,9.54,0,0,0,.48,3.24,3.29,3.29,0,0,0,3.24,2.52,5,5,0,0,0,4.11-2.52A17.17,17.17,0,0,0,99.82,24.9Zm15.72,11.88a5.86,5.86,0,0,1,5.4,2.88,7.47,7.47,0,0,1,1.2,4q0,7.38-3.9,11.4A8.82,8.82,0,0,1,111.76,58a5.86,5.86,0,0,1-5.4-2.88,7.47,7.47,0,0,1-1.2-4q0-7.38,3.9-11.4A8.82,8.82,0,0,1,115.54,36.78Zm3.12,10.62a22,22,0,0,0,.36-3.81,9,9,0,0,0-.48-3.09A3.29,3.29,0,0,0,115.3,38a5,5,0,0,0-4.11,2.52,17.24,17.24,0,0,0-2.55,6.9,21,21,0,0,0-.36,3.75,9,9,0,0,0,.48,3.09A3.29,3.29,0,0,0,112,56.76a5,5,0,0,0,4.11-2.52A17.17,17.17,0,0,0,118.66,47.4Z"/></g></g></svg>