<svg xmlns="http://www.w3.org/2000/svg" viewBox="0 0 305.5 397.21"><defs><style>.cls-1{fill:none;stroke:#2c4157;stroke-miterlimit:10;stroke-width:0.5px;}.cls-2{fill:#869ab4;}</style></defs><g id="圖層_2" data-name="圖層 2"><g id="content"><polyline class="cls-1" points="197.65 65.79 305.25 65.79 305.25 396.96 252.09 396.96"/><polyline class="cls-1" points="101.43 65.79 0.25 65.79 0.25 396.96 52.32 396.96"/><path class="cls-2" d="M173.76,80.16H123.43l1.19-7.66,29.16-28.34,5.32-5.27q9.18-9.18,10.16-16.94c.47-4-.31-7.23-2.34-9.75a11,11,0,0,0-8.58-4,16.18,16.18,0,0,0-11.89,4.15q-4.78,4.38-5.81,12l-9.72.05a27.48,27.48,0,0,1,4.48-12.9,25,25,0,0,1,9.94-8.63A28.52,28.52,0,0,1,158.72,0Q168.55.22,174.33,6t5,14.86q-.92,10.43-12,21.93l-5,5L136.89,72h38.18Z"/></g></g></svg>